HIERARCHY
ROOT Hips
{
 OFFSET 0.000000 0.000000 0.000000
 CHANNELS 6 Xposition Yposition Zposition Yrotation Xrotation Zrotation
 JOINT Chest
 {
  OFFSET 0.000000 9.585900 0.002600
  CHANNELS 3 Yrotation Xrotation Zrotation
  JOINT Chest2
  {
   OFFSET 0.000000 9.601200 -0.005300
   CHANNELS 3 Yrotation Xrotation Zrotation
   JOINT Chest3
   {
    OFFSET 0.000000 9.561800 0.000000
    CHANNELS 3 Yrotation Xrotation Zrotation
    JOINT Chest4
    {
     OFFSET 0.000000 9.552100 0.000000
     CHANNELS 3 Yrotation Xrotation Zrotation
     JOINT Neck
     {
      OFFSET 0.000000 14.453000 0.000000
      CHANNELS 3 Yrotation Xrotation Zrotation
      JOINT Head
      {
       OFFSET 0.000000 8.936500 -0.011300
       CHANNELS 3 Yrotation Xrotation Zrotation
       End Site
       {
        OFFSET 0.000000 17.073600 -0.006000
       }
      }
     }
     JOINT RightCollar
     {
      OFFSET -2.921100 9.558500 0.000000
      CHANNELS 3 Yrotation Xrotation Zrotation
      JOINT RightShoulder
      {
       OFFSET -13.519700 0.000000 0.000000
       CHANNELS 3 Yrotation Xrotation Zrotation
       JOINT RightElbow
       {
        OFFSET 0.000000 -29.696600 0.000000
        CHANNELS 3 Yrotation Xrotation Zrotation
        JOINT RightWrist
        {
         OFFSET 0.000000 -24.004700 0.000000
         CHANNELS 3 Yrotation Xrotation Zrotation
         End Site
         {
          OFFSET 0.000000 -17.728500 0.000000
         }
        }
       }
      }
     }
     JOINT LeftCollar
     {
      OFFSET 2.921100 9.558500 0.000000
      CHANNELS 3 Yrotation Xrotation Zrotation
      JOINT LeftShoulder
      {
       OFFSET 13.519700 0.000000 0.000000
       CHANNELS 3 Yrotation Xrotation Zrotation
       JOINT LeftElbow
       {
        OFFSET 0.000000 -29.696600 0.000000
        CHANNELS 3 Yrotation Xrotation Zrotation
        JOINT LeftWrist
        {
         OFFSET 0.000000 -24.004700 0.000000
         CHANNELS 3 Yrotation Xrotation Zrotation
         End Site
         {
          OFFSET 0.000000 -17.728500 0.000000
         }
        }
       }
      }
     }
    }
   }
  }
 }
 JOINT RightHip
 {
  OFFSET -7.771700 -0.012900 -0.001300
  CHANNELS 3 Yrotation Xrotation Zrotation
  JOINT RightKnee
  {
   OFFSET 0.000000 -40.869800 0.001200
   CHANNELS 3 Yrotation Xrotation Zrotation
   JOINT RightAnkle
   {
    OFFSET 0.000000 -39.717900 0.002100
    CHANNELS 3 Yrotation Xrotation Zrotation
    JOINT RightToe
    {
     OFFSET 0.000000 -4.965400 11.033500
     CHANNELS 3 Yrotation Xrotation Zrotation
     End Site
     {
      OFFSET 0.000000 -1.423100 5.872300
     }
    }
   }
  }
 }
 JOINT LeftHip
 {
  OFFSET 7.771700 -0.012900 -0.001300
  CHANNELS 3 Yrotation Xrotation Zrotation
  JOINT LeftKnee
  {
   OFFSET 0.000000 -40.869800 0.001200
   CHANNELS 3 Yrotation Xrotation Zrotation
   JOINT LeftAnkle
   {
    OFFSET 0.000000 -39.717900 0.002100
    CHANNELS 3 Yrotation Xrotation Zrotation
    JOINT LeftToe
    {
     OFFSET 0.000000 -4.965400 11.033500
     CHANNELS 3 Yrotation Xrotation Zrotation
     End Site
     {
      OFFSET 0.000000 -1.423100 5.872300
     }
    }
   }
  }
 }
}
MOTION
Frames: 12
Frame Time: 0.008333
0.000000 85.388000 0.000000 0.000000 -5.767877 0.000000 0.000000 11.653817 0.000000 0.000000 -5.885947 0.000000 0.000000 -0.000000 0.000000 0.000000 -0.000000 0.000000 0.000000 12.528835 0.000000 0.000000 0.711642 0.000000 0.000000 -0.000000 0.000000 0.000000 0.000000 -90.000000 0.000000 -2.309062 0.000000 0.000000 2.309062 0.000000 0.000000 -0.000000 0.000000 0.000000 -0.000000 90.000000 0.000000 -2.309062 0.000000 0.000000 2.309062 0.000000 0.000000 8.520406 0.000000 0.000000 1.905762 0.000000 -0.000000 -4.658285 0.000000 0.000000 -0.000000 0.000000 0.000000 8.520406 0.000000 0.000000 1.905762 0.000000 -0.000000 -4.658285 0.000000 0.000000 -0.000000 0.000000
-16.015054 56.768317 82.403158 -179.289946 -34.707660 -0.598006 2.661794 21.213389 5.887583 0.199773 2.908426 0.481320 0.337795 4.731998 0.789107 1.663472 18.182657 3.322669 -0.957351 13.439293 -4.917056 0.139763 -10.750411 -8.912576 3.230343 -1.711359 -2.217337 21.135813 -24.891100 -21.680836 140.818152 -76.230638 -94.275141 21.050169 -21.887400 -50.385134 -6.427840 -3.268556 -1.646016 -3.066007 -9.485534 -3.735783 37.006482 -32.772094 -74.195825 7.268690 -11.219518 23.678986 12.601702 -37.134205 -8.834502 -3.117208 67.429079 -1.710968 5.963301 7.160335 8.745623 -0.093683 0.156482 -0.054514 -10.775323 -44.383275 3.798458 27.324526 64.820193 26.333341 -18.156826 31.077876 -4.026992 -0.318677 -13.554477 -5.055005
-16.012827 56.764700 82.407309 -179.296376 -34.734124 -0.590290 2.633061 21.223551 5.897297 0.195849 2.913272 0.483284 0.331579 4.739470 0.792237 1.646426 18.188552 3.324947 -1.044601 13.462699 -4.868684 -0.045544 -10.715079 -8.785533 3.234469 -1.710148 -2.230217 21.172993 -24.895222 -21.707560 140.823526 -76.237416 -94.276358 21.052706 -21.887727 -50.390987 -6.429485 -3.286499 -1.659462 -3.072593 -9.488985 -3.707997 37.008953 -32.774076 -74.212755 7.260707 -11.232008 23.682567 12.656025 -37.111375 -8.859980 -3.195784 67.432026 -1.751821 5.970317 7.179544 8.752795 -0.085167 0.147315 -0.055762 -10.784492 -44.357945 3.807135 27.307005 64.818071 26.311602 -18.190936 31.089064 -4.066857 -0.300710 -13.563514 -5.045012
-16.012611 56.760004 82.412547 -179.294227 -34.759772 -0.573288 2.598402 21.231090 5.892105 0.192390 2.916746 0.485076 0.297835 4.727925 0.819591 1.644774 18.212221 3.298844 -1.134244 13.484843 -4.819079 -0.235699 -10.682135 -8.655402 3.253844 -1.700676 -2.257132 21.185614 -24.908270 -21.716022 140.826448 -76.242937 -94.275730 21.080609 -21.894054 -50.447793 -6.411503 -3.291018 -1.688671 -3.103142 -9.502248 -3.666329 37.014429 -32.779252 -74.234580 7.267101 -11.247329 23.689293 12.679819 -37.090436 -8.887501 -3.209219 67.437791 -1.757308 5.979130 7.187000 8.757892 -0.104437 0.146436 -0.052342 -10.772117 -44.336798 3.783564 27.280394 64.811216 26.287895 -18.211203 31.110668 -4.087979 -0.293807 -13.577633 -5.043281
-16.008423 56.754677 82.418195 -179.290407 -34.785949 -0.579972 2.570741 21.235561 5.908363 0.189466 2.920480 0.486593 0.298286 4.733637 0.814672 1.621530 18.212872 3.307827 -1.225120 13.506544 -4.768464 -0.428403 -10.649794 -8.522919 3.251526 -1.694158 -2.256200 21.212713 -24.928276 -21.741853 140.846993 -76.256163 -94.290523 21.094752 -21.901815 -50.482710 -6.392753 -3.289665 -1.715340 -3.133186 -9.516213 -3.631039 37.032110 -32.779076 -74.259899 7.287274 -11.265550 23.704680 12.685730 -37.071843 -8.884647 -3.239044 67.436907 -1.777599 6.000805 7.199254 8.762709 -0.096047 0.148266 -0.048181 -10.813583 -44.316922 3.819205 27.300270 64.812688 26.285447 -18.239277 31.133315 -4.108803 -0.285019 -13.597298 -5.039917
-16.004020 56.751107 82.420852 -179.294854 -34.834576 -0.583598 2.547734 21.258325 5.925192 0.164579 2.893591 0.502231 0.336501 4.783929 0.783562 1.591533 18.197248 3.325940 -1.318306 13.529006 -4.716146 -0.626127 -10.615857 -8.386352 3.246146 -1.683958 -2.252167 21.221375 -24.993822 -21.762588 140.828970 -76.299666 -94.226875 21.104230 -21.903973 -50.502184 -6.394720 -3.289197 -1.725551 -3.143903 -9.524852 -3.611663 37.051516 -32.781758 -74.287542 7.306864 -11.280805 23.724948 12.708882 -37.028821 -8.882670 -3.282806 67.437723 -1.796239 6.012532 7.211960 8.763305 -0.095207 0.145798 -0.046267 -10.854448 -44.272800 3.855360 27.333686 64.815757 26.293296 -18.269316 31.154729 -4.134033 -0.271479 -13.619870 -5.036294
-15.999796 56.744560 82.427389 -179.308670 -34.853372 -0.581669 2.535616 21.247856 5.936949 0.167106 2.895274 0.500681 0.327383 4.787612 0.788616 1.594202 18.212274 3.316421 -1.423111 13.537827 -4.647169 -0.830207 -10.580941 -8.244070 3.245919 -1.676205 -2.253019 21.228086 -25.031863 -21.776459 140.886730 -76.306747 -94.294888 21.093112 -21.904292 -50.496465 -6.414223 -3.299746 -1.717128 -3.130357 -9.518478 -3.614387 37.062543 -32.783384 -74.302461 7.285938 -11.267463 23.716268 12.742137 -37.018691 -8.886155 -3.336895 67.436479 -1.829552 6.023469 7.225581 8.767703 -0.092884 0.148474 -0.045947 -10.896159 -44.254899 3.901764 27.376424 64.814661 26.306336 -18.296630 31.150731 -4.155695 -0.260663 -13.617214 -5.032601
-15.996064 56.739132 82.431999 -179.308453 -34.883166 -0.587004 2.518489 21.248739 5.948494 0.173901 2.910760 0.494471 0.314789 4.774061 0.797511 1.574261 18.207327 3.322439 -1.516271 13.567001 -4.597733 -1.038811 -10.547403 -8.097022 3.260465 -1.644787 -2.270196 21.234924 -25.068009 -21.793451 140.897320 -76.332114 -94.286755 21.091917 -21.905065 -50.501240 -6.416676 -3.291729 -1.727385 -3.117388 -9.509276 -3.617578 37.075262 -32.785773 -74.318793 7.239097 -11.230846 23.671158 12.760062 -36.996865 -8.887866 -3.378577 67.437595 -1.852583 6.038521 7.241464 8.773567 -0.092658 0.145065 -0.046496 -10.946505 -44.227255 3.945053 27.414750 64.815237 26.315124 -18.328765 31.152856 -4.180827 -0.249373 -13.629060 -5.026961
-15.991319 56.736934 82.431882 -179.313061 -34.944096 -0.598827 2.512164 21.279701 5.968740 0.179283 2.926479 0.490962 0.304885 4.759851 0.804154 1.559877 18.209862 3.326487 -1.615966 13.587002 -4.540074 -1.249612 -10.515808 -7.946512 3.229404 -1.639888 -2.246160 21.293063 -25.073847 -21.844310 140.973038 -76.343070 -94.348756 21.093654 -21.898943 -50.527762 -6.423707 -3.284252 -1.728155 -3.131263 -9.525314 -3.603518 37.068036 -32.787797 -74.364540 7.260015 -11.260765 23.706247 12.766263 -36.941254 -8.868372 -3.408001 67.436580 -1.862895 6.052106 7.252462 8.776395 -0.099139 0.143677 -0.047044 -11.022549 -44.163373 4.020358 27.480004 64.825346 26.319927 -18.364430 31.140056 -4.186475 -0.234549 -13.632164 -5.030439
-15.990021 56.733331 82.433739 -179.316165 -34.987731 -0.594324 2.476527 21.257009 5.970023 0.191394 2.962876 0.485976 0.283378 4.729697 0.813477 1.580304 18.268024 3.307283 -1.727035 13.583795 -4.463912 -1.463804 -10.484975 -7.790466 3.200974 -1.650575 -2.224313 21.326035 -25.091171 -21.886428 141.115518 -76.334682 -94.498331 21.069324 -21.886166 -50.526561 -6.455023 -3.298618 -1.708180 -3.129201 -9.538728 -3.595026 37.090908 -32.763169 -74.391671 7.255240 -11.264109 23.706870 12.791936 -36.902179 -8.883549 -3.433846 67.440513 -1.863729 6.065595 7.264124 8.777292 -0.109036 0.141897 -0.046184 -11.064701 -44.117840 4.056102 27.502803 64.831798 26.299991 -18.375379 31.127943 -4.192414 -0.225910 -13.630072 -5.028940
-15.988950 56.728925 82.436882 -179.322624 -35.019589 -0.590641 2.467250 21.257278 5.968884 0.184184 2.960992 0.490478 0.292948 4.748600 0.808831 1.559664 18.252205 3.316160 -1.821610 13.606311 -4.406784 -1.682174 -10.454281 -7.627248 3.198438 -1.630936 -2.226765 21.346208 -25.115419 -21.923476 141.164635 -76.354041 -94.535625 21.070647 -21.885306 -50.542822 -6.477882 -3.297352 -1.701900 -3.136177 -9.567647 -3.580151 37.139733 -32.713033 -74.409048 7.249669 -11.262779 23.704838 12.805675 -36.878577 -8.886641 -3.459314 67.443803 -1.876896 6.065563 7.280577 8.779971 -0.098931 0.139454 -0.048278 -11.097268 -44.084169 4.088581 27.523110 64.836598 26.287187 -18.382733 31.112089 -4.198660 -0.216698 -13.623928 -5.027208
-15.988231 56.725914 82.438311 -179.338639 -35.062418 -0.584173 2.468865 21.270239 5.969515 0.173365 2.930027 0.493447 0.307263 4.795302 0.806891 1.551169 18.238851 3.322076 -1.927435 13.624943 -4.342776 -1.899994 -10.425375 -7.459931 3.183191 -1.614958 -2.223469 21.366131 -25.131470 -21.952308 141.203852 -76.369904 -94.563699 21.068257 -21.884164 -50.551639 -6.472511 -3.273504 -1.713833 -3.149959 -9.591563 -3.568783 37.148012 -32.694614 -74.424035 7.244736 -11.265124 23.706706 12.817609 -36.843172 -8.881343 -3.466000 67.444524 -1.879923 6.079870 7.294003 8.790000 -0.103331 0.133660 -0.052464 -11.119235 -44.039377 4.120544 27.554986 64.846858 26.280125 -18.370718 31.088997 -4.178617 -0.221893 -13.613107 -5.032589
